<?xml version="1.0" standalone="no"?>
<!DOCTYPE svg PUBLIC "-//W3C//DTD SVG 20010904//EN"
 "http://www.w3.org/TR/2001/REC-SVG-20010904/DTD/svg10.dtd">
<svg version="1.0" xmlns="http://www.w3.org/2000/svg"
 width="483.000000pt" height="458.000000pt" viewBox="0 0 483.000000 458.000000"
 preserveAspectRatio="xMidYMid meet">

<g transform="translate(0.000000,458.000000) scale(0.100000,-0.100000)"
fill="#000000" stroke="none">
<path d="M500 3645 l0 -625 55 0 55 0 0 575 0 575 1840 0 1840 0 0 -575 0
-575 55 0 55 0 0 625 0 625 -1950 0 -1950 0 0 -625z"/>
<path d="M517 2923 c-2 -5 -8 -50 -12 -102 l-7 -94 104 7 c56 4 127 10 157 13
l54 6 -7 -474 c-4 -261 -9 -493 -12 -517 l-6 -43 123 3 124 3 -2 40 c-1 22 -5
253 -9 514 l-7 474 54 -6 c30 -3 100 -9 156 -13 l101 -7 7 79 c3 44 7 88 8 99
2 20 -5 20 -410 23 -226 1 -414 -1 -416 -5z"/>
<path d="M2597 2923 c-3 -5 -1 -179 5 -388 8 -274 8 -439 0 -594 -6 -118 -9
-217 -7 -219 2 -3 105 -7 227 -10 186 -4 234 -2 288 12 110 28 188 72 265 150
126 127 177 269 179 496 1 149 -10 209 -55 305 -53 114 -137 188 -259 226 -58
19 -97 22 -351 26 -171 4 -288 2 -292 -4z m462 -193 c78 -13 128 -38 169 -85
45 -51 61 -87 78 -172 28 -147 10 -326 -43 -431 -32 -63 -100 -127 -152 -143
-41 -12 -265 -9 -278 4 -9 10 -8 811 2 827 8 13 142 13 224 0z"/>
<path d="M1678 2597 c-152 -64 -255 -222 -278 -427 -17 -151 18 -276 105 -369
68 -73 126 -94 239 -89 131 6 209 49 285 158 139 198 143 507 8 657 -55 61
-117 86 -217 90 -72 3 -94 0 -142 -20z m155 -211 c78 -32 114 -126 104 -268
-11 -157 -89 -238 -201 -207 -94 26 -141 111 -141 254 0 76 4 98 25 140 43 86
126 118 213 81z"/>
<path d="M3947 2600 c-236 -92 -364 -474 -239 -715 59 -116 141 -168 272 -173
119 -5 184 20 265 102 103 103 155 244 155 414 0 247 -125 393 -333 392 -46
-1 -90 -8 -120 -20z m180 -228 c50 -36 67 -84 71 -199 4 -119 -12 -184 -57
-227 -75 -72 -200 -44 -253 57 -18 33 -23 64 -26 147 -3 99 -2 108 25 159 36
71 76 94 154 89 36 -3 66 -11 86 -26z"/>
<path d="M500 985 l0 -625 1950 0 1950 0 0 625 0 625 -55 0 -55 0 0 -570 0
-570 -1840 0 -1840 0 0 570 0 570 -55 0 -55 0 0 -625z"/>
</g>
</svg>
